<svg data-v-fde0c5aa="" xmlns="http://www.w3.org/2000/svg" viewBox="0 0 300 300" class="iconAbove"><!----><defs data-v-fde0c5aa=""><!----></defs><rect data-v-fde0c5aa="" fill="#F3F6EF" x="0" y="0" width="300px" height="300px" class="logo-background-square"></rect><defs data-v-fde0c5aa=""><!----></defs><g data-v-fde0c5aa="" id="beb546e4-18b9-4931-a00c-753a21b82d20" fill="#1E2314" transform="matrix(1.9609322511588232,0,0,1.9609322511588232,19.254845695469765,164.90240605728715)"><path d="M2.13 6.50L2.13 6.50Q2.13 5.42 3.06 4.70Q3.99 3.99 5.36 3.99L5.36 3.99Q6.43 3.99 7.02 4.42Q7.62 4.86 7.62 5.67L7.62 5.67Q7.62 6.30 7.30 6.69Q6.99 7.08 6.47 7.08L6.47 7.08Q6.27 7.08 6.11 7.01Q5.95 6.94 5.82 6.79L5.82 6.79Q6.10 6.62 6.28 6.29Q6.45 5.95 6.45 5.59L6.45 5.59Q6.45 5.14 6.19 4.89Q5.92 4.65 5.42 4.65L5.42 4.65Q4.82 4.65 4.47 4.98Q4.13 5.32 4.13 5.92L4.13 5.92Q4.13 6.41 4.38 6.85Q4.63 7.29 5.47 8.04L5.47 8.04Q6.58 9.00 6.93 9.71Q7.28 10.42 7.28 11.28L7.28 11.28Q7.28 12.88 6.17 13.83Q5.07 14.78 3.35 14.78L3.35 14.78Q1.97 14.78 1.18 14.15Q0.38 13.52 0.38 12.38L0.38 12.38Q0.38 11.37 0.98 10.72Q1.58 10.08 2.44 10.08L2.44 10.08Q2.97 10.08 3.30 10.32Q3.64 10.57 3.67 11.00L3.67 11.00Q2.94 11.00 2.48 11.35Q2.03 11.70 2.03 12.32L2.03 12.32Q2.03 12.91 2.39 13.29Q2.76 13.66 3.37 13.66L3.37 13.66Q4.10 13.66 4.55 13.16Q5.00 12.66 5.00 11.80L5.00 11.80Q5.00 11.14 4.70 10.54Q4.41 9.94 3.49 8.93L3.49 8.93Q2.65 8.04 2.39 7.53Q2.13 7.01 2.13 6.50ZM7.78 12.33L7.78 12.33Q7.78 11.54 8.04 10.64Q8.30 9.74 8.75 9.04L8.75 9.04Q9.27 8.22 10.00 7.79Q10.72 7.36 11.62 7.36L11.62 7.36Q12.52 7.36 12.96 7.92Q13.41 8.48 13.41 9.60L13.41 9.60Q13.44 9.62 13.48 9.63Q13.51 9.63 13.57 9.63L13.57 9.63Q14 9.63 14.60 9.39Q15.20 9.16 15.72 8.79L15.72 8.79L15.85 9.17Q15.46 9.59 14.80 9.90Q14.15 10.21 13.37 10.33L13.37 10.33Q13.20 12.22 12.28 13.38Q11.35 14.55 10.02 14.55L10.02 14.55Q8.93 14.55 8.36 13.99Q7.78 13.43 7.78 12.33ZM11.73 8.22L11.73 8.22Q11.06 8.22 10.46 9.58Q9.87 10.93 9.87 12.15L9.87 12.15Q9.87 12.81 10.02 13.05Q10.16 13.29 10.58 13.29L10.58 13.29Q11.10 13.29 11.57 12.45Q12.04 11.61 12.21 10.37L12.21 10.37Q12.01 10.33 11.92 10.19Q11.83 10.04 11.83 9.79L11.83 9.79Q11.83 9.52 11.94 9.32Q12.05 9.13 12.26 9.03L12.26 9.03Q12.24 8.58 12.12 8.40Q12.00 8.22 11.73 8.22ZM19.28 8.65L19.28 8.65Q19.28 9.13 19.08 9.40Q18.87 9.67 18.54 9.67L18.54 9.67Q18.42 9.67 18.30 9.63Q18.17 9.59 18.05 9.51L18.05 9.51Q18.13 9.28 18.17 9.07Q18.21 8.86 18.21 8.68L18.21 8.68Q18.21 8.40 18.12 8.25Q18.02 8.11 17.82 8.11L17.82 8.11Q17.21 8.11 16.62 9.53Q16.03 10.95 16.03 12.22L16.03 12.22Q16.03 12.87 16.25 13.13Q16.46 13.40 17.04 13.40L17.04 13.40Q17.70 13.40 18.25 13.10Q18.80 12.80 19.52 11.98L19.52 11.98L19.99 11.98Q19.18 13.30 18.23 13.94Q17.28 14.57 16.14 14.57L16.14 14.57Q15.06 14.57 14.51 14.01Q13.96 13.45 13.96 12.35L13.96 12.35Q13.96 11.55 14.20 10.65Q14.45 9.76 14.88 9.06L14.88 9.06Q15.40 8.22 16.12 7.79Q16.84 7.36 17.72 7.36L17.72 7.36Q18.49 7.36 18.89 7.69Q19.28 8.02 19.28 8.65ZM22.97 5.63L22.97 5.63Q22.97 6.09 22.65 6.41Q22.32 6.73 21.85 6.73L21.85 6.73Q21.39 6.73 21.07 6.41Q20.75 6.09 20.75 5.63L20.75 5.63Q20.75 5.17 21.07 4.84Q21.39 4.51 21.85 4.51L21.85 4.51Q22.32 4.51 22.65 4.84Q22.97 5.17 22.97 5.63ZM19.40 12.89L19.40 12.89Q19.40 12.71 19.43 12.48Q19.46 12.25 19.52 11.98L19.52 11.98L20.47 7.49L22.48 7.49L21.48 12.25Q21.45 12.38 21.43 12.48Q21.42 12.59 21.42 12.70L21.42 12.70Q21.42 12.98 21.55 13.10Q21.69 13.22 21.99 13.22L21.99 13.22Q22.39 13.22 22.74 12.87Q23.09 12.53 23.25 11.98L23.25 11.98L23.84 11.98Q23.39 13.26 22.64 13.92Q21.88 14.57 20.90 14.57L20.90 14.57Q20.20 14.57 19.80 14.13Q19.40 13.69 19.40 12.89ZM27.80 8.13L27.80 8.13L27.80 8.23L27.96 7.49L29.97 7.49L28.97 12.25Q28.94 12.38 28.92 12.48Q28.91 12.59 28.91 12.70L28.91 12.70Q28.91 13.01 29.05 13.15Q29.19 13.30 29.48 13.30L29.48 13.30Q29.85 13.30 30.14 12.96Q30.44 12.61 30.62 11.98L30.62 11.98L31.21 11.98Q30.76 13.27 30.04 13.92Q29.33 14.57 28.39 14.57L28.39 14.57Q27.79 14.57 27.43 14.24Q27.08 13.90 27.02 13.29L27.02 13.29Q26.59 13.93 26.06 14.25Q25.54 14.57 24.93 14.57L24.93 14.57Q24.07 14.57 23.57 13.99Q23.07 13.40 23.07 12.32L23.07 12.32Q23.07 11.54 23.31 10.68Q23.55 9.83 23.97 9.13L23.97 9.13Q24.49 8.30 25.17 7.86Q25.86 7.42 26.67 7.42L26.67 7.42Q27.22 7.42 27.51 7.61Q27.80 7.80 27.80 8.13ZM27.01 11.98L27.68 8.82Q27.68 8.61 27.52 8.45Q27.37 8.29 27.10 8.29L27.10 8.29Q26.33 8.29 25.74 9.58Q25.14 10.86 25.14 12.12L25.14 12.12Q25.14 12.67 25.30 12.94Q25.45 13.22 25.84 13.22L25.84 13.22Q26.21 13.22 26.55 12.87Q26.89 12.52 27.01 11.98L27.01 11.98ZM30.51 12.89L30.51 12.89Q30.51 12.71 30.53 12.48Q30.56 12.25 30.62 11.98L30.62 11.98L32.12 4.97L34.19 4.69L32.58 12.25Q32.55 12.38 32.54 12.48Q32.52 12.59 32.52 12.70L32.52 12.70Q32.52 12.98 32.66 13.10Q32.79 13.22 33.10 13.22L33.10 13.22Q33.49 13.22 33.84 12.87Q34.19 12.53 34.36 11.98L34.36 11.98L34.94 11.98Q34.50 13.26 33.74 13.92Q32.98 14.57 32.00 14.57L32.00 14.57Q31.30 14.57 30.91 14.13Q30.51 13.69 30.51 12.89ZM40.52 11.56L43.60 4.19L45.61 4.19L44.14 14.49L42.13 14.49L43.02 8.20L40.39 14.49L38.47 14.49L38.75 8.18L36.41 14.49L35.29 14.49L38.85 4.87Q37.77 5.24 37.20 6.05Q36.62 6.86 36.62 8.02L36.62 8.02Q36.62 8.30 36.66 8.50Q36.69 8.71 36.78 8.88L36.78 8.88Q36.81 8.93 36.81 8.95Q36.82 8.97 36.82 8.99L36.82 8.99Q36.06 8.99 35.69 8.67Q35.32 8.36 35.32 7.71L35.32 7.71Q35.32 7.04 35.73 6.35Q36.15 5.66 36.88 5.08L36.88 5.08Q37.53 4.56 38.29 4.28Q39.05 3.99 39.77 3.99L39.77 3.99Q40.04 3.99 40.31 4.04Q40.59 4.09 40.84 4.19L40.84 4.19L40.52 11.56ZM50.51 8.71L50.51 8.71Q50.51 9.87 49.56 10.73Q48.61 11.59 47.29 11.66L47.29 11.66Q47.28 11.90 47.27 12.02Q47.26 12.14 47.26 12.22L47.26 12.22Q47.26 12.87 47.48 13.13Q47.70 13.40 48.27 13.40L48.27 13.40Q48.93 13.40 49.48 13.10Q50.04 12.80 50.75 11.98L50.75 11.98L51.23 11.98Q50.41 13.30 49.46 13.94Q48.51 14.57 47.38 14.57L47.38 14.57Q46.30 14.57 45.75 14.01Q45.19 13.45 45.19 12.35L45.19 12.35Q45.19 11.55 45.44 10.65Q45.70 9.76 46.12 9.06L46.12 9.06Q46.63 8.22 47.36 7.79Q48.08 7.36 48.97 7.36L48.97 7.36Q49.74 7.36 50.13 7.69Q50.51 8.02 50.51 8.71ZM49.08 8.11L49.08 8.11Q48.61 8.11 48.13 8.95Q47.64 9.80 47.40 10.99L47.40 10.99Q48.22 10.93 48.83 10.24Q49.43 9.55 49.43 8.68L49.43 8.68Q49.43 8.39 49.35 8.25Q49.27 8.11 49.08 8.11ZM52.72 12.12L52.72 12.12Q52.72 12.67 52.88 12.94Q53.03 13.22 53.42 13.22L53.42 13.22Q53.77 13.22 54.11 12.89Q54.45 12.56 54.57 12.05L54.57 12.05L54.57 11.98L55.26 8.78Q55.22 8.55 55.07 8.42Q54.92 8.29 54.68 8.29L54.68 8.29Q53.91 8.29 53.32 9.58Q52.72 10.86 52.72 12.12ZM55.38 8.13L55.38 8.13L55.38 8.19L56.07 4.97L58.14 4.69L56.53 12.25Q56.50 12.38 56.49 12.48Q56.48 12.59 56.48 12.70L56.48 12.70Q56.48 12.98 56.61 13.10Q56.74 13.22 57.05 13.22L57.05 13.22Q57.41 13.22 57.71 12.89Q58.00 12.57 58.18 11.98L58.18 11.98L58.77 11.98Q58.34 13.23 57.65 13.86Q56.95 14.49 55.96 14.49L55.96 14.49Q55.38 14.49 55.03 14.18Q54.67 13.86 54.59 13.29L54.59 13.29Q54.17 13.93 53.65 14.25Q53.13 14.57 52.51 14.57L52.51 14.57Q51.65 14.57 51.15 13.99Q50.65 13.40 50.65 12.32L50.65 12.32Q50.65 11.54 50.89 10.68Q51.13 9.83 51.55 9.13L51.55 9.13Q52.07 8.30 52.75 7.86Q53.44 7.42 54.25 7.42L54.25 7.42Q54.80 7.42 55.09 7.61Q55.38 7.80 55.38 8.13ZM61.67 5.63L61.67 5.63Q61.67 6.09 61.34 6.41Q61.01 6.73 60.55 6.73L60.55 6.73Q60.09 6.73 59.77 6.41Q59.44 6.09 59.44 5.63L59.44 5.63Q59.44 5.17 59.77 4.84Q60.09 4.51 60.55 4.51L60.55 4.51Q61.01 4.51 61.34 4.84Q61.67 5.17 61.67 5.63ZM58.10 12.89L58.10 12.89Q58.10 12.71 58.13 12.48Q58.16 12.25 58.21 11.98L58.21 11.98L59.16 7.49L61.18 7.49L60.17 12.25Q60.14 12.38 60.13 12.48Q60.12 12.59 60.12 12.70L60.12 12.70Q60.12 12.98 60.25 13.10Q60.38 13.22 60.69 13.22L60.69 13.22Q61.08 13.22 61.43 12.87Q61.78 12.53 61.95 11.98L61.95 11.98L62.54 11.98Q62.09 13.26 61.33 13.92Q60.58 14.57 59.60 14.57L59.60 14.57Q58.90 14.57 58.50 14.13Q58.10 13.69 58.10 12.89ZM66.50 8.13L66.50 8.13L66.50 8.23L66.65 7.49L68.67 7.49L67.66 12.25Q67.63 12.38 67.62 12.48Q67.61 12.59 67.61 12.70L67.61 12.70Q67.61 13.01 67.75 13.15Q67.89 13.30 68.18 13.30L68.18 13.30Q68.54 13.30 68.84 12.96Q69.13 12.61 69.31 11.98L69.31 11.98L69.90 11.98Q69.45 13.27 68.74 13.92Q68.03 14.57 67.09 14.57L67.09 14.57Q66.49 14.57 66.13 14.24Q65.77 13.90 65.72 13.29L65.72 13.29Q65.28 13.93 64.76 14.25Q64.23 14.57 63.63 14.57L63.63 14.57Q62.76 14.57 62.27 13.99Q61.77 13.40 61.77 12.32L61.77 12.32Q61.77 11.54 62.01 10.68Q62.24 9.83 62.66 9.13L62.66 9.13Q63.18 8.30 63.87 7.86Q64.55 7.42 65.37 7.42L65.37 7.42Q65.91 7.42 66.21 7.61Q66.50 7.80 66.50 8.13ZM65.70 11.98L66.37 8.82Q66.37 8.61 66.22 8.45Q66.07 8.29 65.80 8.29L65.80 8.29Q65.03 8.29 64.44 9.58Q63.84 10.86 63.84 12.12L63.84 12.12Q63.84 12.67 63.99 12.94Q64.15 13.22 64.54 13.22L64.54 13.22Q64.90 13.22 65.25 12.87Q65.59 12.52 65.70 11.98L65.70 11.98ZM75.99 8.79L76.80 4.98Q76.23 5.29 75.59 6.14Q74.94 6.99 74.28 8.30L74.28 8.30Q74.79 8.40 75.22 8.53Q75.64 8.65 75.99 8.79L75.99 8.79ZM77.90 3.99L77.90 3.99Q78.19 3.99 78.48 4.04Q78.78 4.09 79.00 4.19L79.00 4.19L76.80 14.49L74.79 14.49L75.87 9.41Q75.38 9.18 74.94 9.07Q74.51 8.95 73.99 8.90L73.99 8.90Q73.19 10.64 72.68 12.43Q72.17 14.22 72.17 15.30L72.17 15.30Q72.17 15.55 72.22 15.74Q72.27 15.93 72.37 16.09L72.37 16.09Q71.30 16.09 70.90 15.72Q70.49 15.36 70.49 14.60L70.49 14.60Q70.49 13.66 71.06 12.10Q71.62 10.53 72.55 8.90L72.55 8.90Q71.83 8.95 71.44 9.13Q71.04 9.31 70.91 9.63L70.91 9.63Q70.97 9.63 71.03 9.78Q71.09 9.93 71.09 10.07L71.09 10.07Q71.09 10.30 70.87 10.46Q70.64 10.61 70.31 10.61L70.31 10.61Q69.92 10.61 69.68 10.39Q69.44 10.18 69.44 9.80L69.44 9.80Q69.44 9.07 70.26 8.57Q71.08 8.08 72.30 8.08L72.30 8.08Q72.44 8.08 72.62 8.09Q72.80 8.09 73.02 8.12L73.02 8.12Q74.26 6.17 75.53 5.08Q76.80 3.99 77.90 3.99ZM81.28 9.11L80.46 13.03Q80.51 13.19 80.65 13.27Q80.79 13.36 80.99 13.36L80.99 13.36Q81.87 13.36 82.41 12.22Q82.95 11.09 82.95 9.59L82.95 9.59Q82.95 9.02 82.78 8.72Q82.61 8.43 82.25 8.43L82.25 8.43Q82.00 8.43 81.73 8.62Q81.47 8.81 81.28 9.11L81.28 9.11ZM80.23 14.07L79.51 17.49L77.39 17.99L79.73 6.97L81.75 6.97L81.52 8.02Q81.87 7.73 82.28 7.57Q82.68 7.42 83.16 7.42L83.16 7.42Q84.00 7.42 84.43 7.98Q84.87 8.54 84.87 9.63L84.87 9.63Q84.87 11.77 83.95 13.17Q83.03 14.57 81.42 14.57L81.42 14.57Q80.98 14.57 80.68 14.45Q80.37 14.32 80.23 14.07L80.23 14.07ZM87.84 9.11L87.01 13.03Q87.07 13.19 87.21 13.27Q87.35 13.36 87.54 13.36L87.54 13.36Q88.42 13.36 88.96 12.22Q89.50 11.09 89.50 9.59L89.50 9.59Q89.50 9.02 89.33 8.72Q89.17 8.43 88.80 8.43L88.80 8.43Q88.55 8.43 88.28 8.62Q88.02 8.81 87.84 9.11L87.84 9.11ZM86.79 14.07L86.06 17.49L83.94 17.99L86.28 6.97L88.30 6.97L88.07 8.02Q88.42 7.73 88.83 7.57Q89.24 7.42 89.71 7.42L89.71 7.42Q90.55 7.42 90.99 7.98Q91.42 8.54 91.42 9.63L91.42 9.63Q91.42 11.77 90.50 13.17Q89.59 14.57 87.98 14.57L87.98 14.57Q87.53 14.57 87.23 14.45Q86.93 14.32 86.79 14.07L86.79 14.07ZM91.66 12.89L91.66 12.89Q91.66 12.71 91.69 12.48Q91.71 12.25 91.77 11.98L91.77 11.98L93.27 4.97L95.34 4.69L93.73 12.25Q93.70 12.38 93.69 12.48Q93.67 12.59 93.67 12.70L93.67 12.70Q93.67 12.98 93.81 13.10Q93.94 13.22 94.25 13.22L94.25 13.22Q94.64 13.22 94.99 12.87Q95.34 12.53 95.51 11.98L95.51 11.98L96.10 11.98Q95.65 13.26 94.89 13.92Q94.14 14.57 93.16 14.57L93.16 14.57Q92.46 14.57 92.06 14.13Q91.66 13.69 91.66 12.89ZM98.90 5.63L98.90 5.63Q98.90 6.09 98.57 6.41Q98.24 6.73 97.78 6.73L97.78 6.73Q97.31 6.73 96.99 6.41Q96.67 6.09 96.67 5.63L96.67 5.63Q96.67 5.17 96.99 4.84Q97.31 4.51 97.78 4.51L97.78 4.51Q98.24 4.51 98.57 4.84Q98.90 5.17 98.90 5.63ZM95.33 12.89L95.33 12.89Q95.33 12.71 95.35 12.48Q95.38 12.25 95.44 11.98L95.44 11.98L96.39 7.49L98.41 7.49L97.40 12.25Q97.37 12.38 97.36 12.48Q97.34 12.59 97.34 12.70L97.34 12.70Q97.34 12.98 97.48 13.10Q97.61 13.22 97.92 13.22L97.92 13.22Q98.31 13.22 98.66 12.87Q99.01 12.53 99.18 11.98L99.18 11.98L99.76 11.98Q99.32 13.26 98.56 13.92Q97.80 14.57 96.82 14.57L96.82 14.57Q96.12 14.57 95.73 14.13Q95.33 13.69 95.33 12.89ZM103.95 8.65L103.95 8.65Q103.95 9.13 103.75 9.40Q103.54 9.67 103.21 9.67L103.21 9.67Q103.10 9.67 102.97 9.63Q102.84 9.59 102.72 9.51L102.72 9.51Q102.80 9.28 102.84 9.07Q102.89 8.86 102.89 8.68L102.89 8.68Q102.89 8.40 102.79 8.25Q102.69 8.11 102.49 8.11L102.49 8.11Q101.88 8.11 101.29 9.53Q100.70 10.95 100.70 12.22L100.70 12.22Q100.70 12.87 100.92 13.13Q101.14 13.40 101.71 13.40L101.71 13.40Q102.37 13.40 102.92 13.10Q103.47 12.80 104.19 11.98L104.19 11.98L104.66 11.98Q103.85 13.30 102.90 13.94Q101.95 14.57 100.81 14.57L100.81 14.57Q99.74 14.57 99.18 14.01Q98.63 13.45 98.63 12.35L98.63 12.35Q98.63 11.55 98.88 10.65Q99.12 9.76 99.55 9.06L99.55 9.06Q100.07 8.22 100.79 7.79Q101.51 7.36 102.40 7.36L102.40 7.36Q103.17 7.36 103.56 7.69Q103.95 8.02 103.95 8.65ZM108.79 8.13L108.79 8.13L108.79 8.23L108.95 7.49L110.96 7.49L109.96 12.25Q109.93 12.38 109.91 12.48Q109.90 12.59 109.90 12.70L109.90 12.70Q109.90 13.01 110.04 13.15Q110.18 13.30 110.47 13.30L110.47 13.30Q110.84 13.30 111.13 12.96Q111.43 12.61 111.61 11.98L111.61 11.98L112.20 11.98Q111.75 13.27 111.03 13.92Q110.32 14.57 109.38 14.57L109.38 14.57Q108.78 14.57 108.42 14.24Q108.07 13.90 108.01 13.29L108.01 13.29Q107.58 13.93 107.05 14.25Q106.53 14.57 105.92 14.57L105.92 14.57Q105.06 14.57 104.56 13.99Q104.06 13.40 104.06 12.32L104.06 12.32Q104.06 11.54 104.30 10.68Q104.54 9.83 104.96 9.13L104.96 9.13Q105.48 8.30 106.16 7.86Q106.85 7.42 107.66 7.42L107.66 7.42Q108.21 7.42 108.50 7.61Q108.79 7.80 108.79 8.13ZM108.00 11.98L108.67 8.82Q108.67 8.61 108.51 8.45Q108.36 8.29 108.09 8.29L108.09 8.29Q107.32 8.29 106.73 9.58Q106.13 10.86 106.13 12.12L106.13 12.12Q106.13 12.67 106.29 12.94Q106.44 13.22 106.83 13.22L106.83 13.22Q107.20 13.22 107.54 12.87Q107.88 12.52 108.00 11.98L108.00 11.98ZM112.00 8.05L112.11 7.49L112.57 7.49L112.99 5.56L115.07 5.28L114.59 7.49L115.43 7.49L115.32 8.05L114.48 8.05L113.58 12.25Q113.55 12.38 113.54 12.48Q113.53 12.59 113.53 12.70L113.53 12.70Q113.53 12.98 113.66 13.10Q113.79 13.22 114.10 13.22L114.10 13.22Q114.49 13.22 114.84 12.87Q115.19 12.53 115.36 11.98L115.36 11.98L115.95 11.98Q115.50 13.26 114.74 13.92Q113.99 14.57 113.01 14.57L113.01 14.57Q112.31 14.57 111.91 14.13Q111.51 13.69 111.51 12.89L111.51 12.89Q111.51 12.71 111.54 12.48Q111.57 12.25 111.62 11.98L111.62 11.98L112.46 8.05L112.00 8.05ZM118.82 5.63L118.82 5.63Q118.82 6.09 118.49 6.41Q118.16 6.73 117.70 6.73L117.70 6.73Q117.24 6.73 116.91 6.41Q116.59 6.09 116.59 5.63L116.59 5.63Q116.59 5.17 116.91 4.84Q117.24 4.51 117.70 4.51L117.70 4.51Q118.16 4.51 118.49 4.84Q118.82 5.17 118.82 5.63ZM115.25 12.89L115.25 12.89Q115.25 12.71 115.28 12.48Q115.30 12.25 115.36 11.98L115.36 11.98L116.31 7.49L118.33 7.49L117.32 12.25Q117.29 12.38 117.28 12.48Q117.26 12.59 117.26 12.70L117.26 12.70Q117.26 12.98 117.40 13.10Q117.53 13.22 117.84 13.22L117.84 13.22Q118.23 13.22 118.58 12.87Q118.93 12.53 119.10 11.98L119.10 11.98L119.69 11.98Q119.24 13.26 118.48 13.92Q117.73 14.57 116.75 14.57L116.75 14.57Q116.05 14.57 115.65 14.13Q115.25 13.69 115.25 12.89ZM118.90 12.33L118.90 12.33Q118.90 11.54 119.16 10.64Q119.42 9.74 119.87 9.04L119.87 9.04Q120.39 8.22 121.11 7.79Q121.84 7.36 122.74 7.36L122.74 7.36Q123.63 7.36 124.08 7.92Q124.53 8.48 124.53 9.60L124.53 9.60Q124.56 9.62 124.59 9.63Q124.63 9.63 124.68 9.63L124.68 9.63Q125.12 9.63 125.72 9.39Q126.32 9.16 126.84 8.79L126.84 8.79L126.97 9.17Q126.57 9.59 125.92 9.90Q125.27 10.21 124.49 10.33L124.49 10.33Q124.32 12.22 123.40 13.38Q122.47 14.55 121.14 14.55L121.14 14.55Q120.05 14.55 119.48 13.99Q118.90 13.43 118.90 12.33ZM122.85 8.22L122.85 8.22Q122.18 8.22 121.58 9.58Q120.99 10.93 120.99 12.15L120.99 12.15Q120.99 12.81 121.14 13.05Q121.28 13.29 121.70 13.29L121.70 13.29Q122.22 13.29 122.69 12.45Q123.16 11.61 123.33 10.37L123.33 10.37Q123.13 10.33 123.04 10.19Q122.95 10.04 122.95 9.79L122.95 9.79Q122.95 9.52 123.06 9.32Q123.17 9.13 123.38 9.03L123.38 9.03Q123.35 8.58 123.24 8.40Q123.12 8.22 122.85 8.22ZM128.72 12.99L128.72 12.99Q128.72 12.74 128.78 12.36Q128.84 11.98 129.04 11.16L129.04 11.16Q129.23 10.36 129.29 10.01Q129.35 9.66 129.35 9.42L129.35 9.42Q129.35 9.07 129.22 8.89Q129.09 8.71 128.84 8.71L128.84 8.71Q128.51 8.71 128.22 9.05Q127.93 9.39 127.75 10.00L127.75 10.00L126.80 14.49L124.78 14.49L126.27 7.49L128.28 7.49L128.13 8.22Q128.48 7.83 128.88 7.63Q129.29 7.43 129.77 7.43L129.77 7.43Q130.51 7.43 130.91 7.84Q131.32 8.25 131.32 9.02L131.32 9.02Q131.32 9.34 131.24 9.78Q131.17 10.22 130.94 11.13L130.94 11.13Q130.76 11.84 130.70 12.14Q130.65 12.43 130.65 12.63L130.65 12.63Q130.65 12.92 130.79 13.07Q130.93 13.22 131.21 13.22L131.21 13.22Q131.56 13.22 131.81 12.98Q132.06 12.74 132.38 11.98L132.38 11.98L132.97 11.98Q132.52 13.29 131.89 13.93Q131.25 14.57 130.37 14.57L130.37 14.57Q129.58 14.57 129.15 14.15Q128.72 13.72 128.72 12.99Z"></path></g><defs data-v-fde0c5aa=""><linearGradient data-v-fde0c5aa="" gradientTransform="rotate(25)" id="0485564b-d7e5-4d31-aeaa-b5eb566eafdf" x1="0%" y1="0%" x2="100%" y2="0%"><stop data-v-fde0c5aa="" offset="0%" stop-color="#FD9245" stop-opacity="1"></stop><stop data-v-fde0c5aa="" offset="100%" stop-color="#06A96B" stop-opacity="1"></stop></linearGradient></defs><g data-v-fde0c5aa="" id="92b8eee5-adfb-409e-9f9a-c7b9ce80a977" stroke="none" fill="url(#0485564b-d7e5-4d31-aeaa-b5eb566eafdf)" transform="matrix(0.5613374607188258,0,0,0.5613374607188258,121.46946317225657,99.25908526494588)"><g clip-rule="evenodd"><path d="M12.983 10.59l17.018 88.223-5.872-59.049 29.021-1.892-.054-9.883L64.549 1 53.622 18.977z"></path><path d="M59.389 54.548l5.16-53.541-8.74 39.716-19.612 1.045 1.57 20.462-7.766 36.583 12.057-39.899z"></path><path d="M62.8 67.182l.549-10.453-15.979 3.755-.032 11.797-17.337 26.532 21.68-27.616zM65.711 62.394l14.841-4.731 1.509-12.532-15.899 2.095zM72.07 44.502l10.988-1.417 1.581-10.278-8.079-.373L64.549 1l8.43 30.967z"></path><path d="M87.413 31.294l1.256-9.506-9.544-2.694L64.549 1l14.483 22.437-.422 7z"></path></g></g><!----></svg>